<?xml version="1.0" encoding="utf-8"?>
<!-- Generator: Adobe Illustrator 25.4.1, SVG Export Plug-In . SVG Version: 6.00 Build 0)  -->
<svg version="1.1" id="Layer_1" xmlns="http://www.w3.org/2000/svg" xmlns:xlink="http://www.w3.org/1999/xlink" x="0px" y="0px"
	 viewBox="0 0 360 360" style="enable-background:new 0 0 360 360;" xml:space="preserve">
<style type="text/css">
	.st0{fill:#53AEDB;}
	.st1{fill:#FFFFFF;}
	.st2{fill:none;stroke:#FFFFFF;stroke-width:10;stroke-miterlimit:10;}
</style>
<path class="st0" d="M332,353H29c-11.05,0-20-8.95-20-20V30c0-11.05,8.95-20,20-20h303c11.05,0,20,8.95,20,20v303
	C352,344.05,343.05,353,332,353z"/>
<path class="st1" d="M312.53,290.34l-7.19,8.94c-6.44,8.01-17.43,9.85-24.56,4.12l-105.64-94.23c-7.13-5.73-11.58-10.67-5.14-18.68
	l7.19-8.94c6.44-8.01,13.74-5.18,20.87,0.55l113.22,83.36C318.4,271.2,318.96,282.33,312.53,290.34z"/>
<circle class="st2" cx="123" cy="133" r="77"/>
</svg>
