<?xml version="1.0" encoding="utf-8"?>
<!-- Generator: Adobe Illustrator 25.4.1, SVG Export Plug-In . SVG Version: 6.00 Build 0)  -->
<svg version="1.1" id="Layer_1" xmlns="http://www.w3.org/2000/svg" xmlns:xlink="http://www.w3.org/1999/xlink" x="0px" y="0px"
	 viewBox="0 0 360 360" style="enable-background:new 0 0 360 360;" xml:space="preserve">
<style type="text/css">
	.st0{fill:#53AEDB;}
	.st1{fill:#FFFFFF;}
	.st2{fill:none;stroke:#FFFFFF;stroke-width:5;stroke-miterlimit:10;}
	.st3{fill:none;stroke:#53AEDB;stroke-width:5;stroke-miterlimit:10;}
</style>
<path class="st0" d="M331,352H28c-11.05,0-20-8.95-20-20V29C8,17.95,16.95,9,28,9h303c11.05,0,20,8.95,20,20v303
	C351,343.05,342.05,352,331,352z"/>
<path class="st1" d="M309,279H51c-5.52,0-10-4.48-10-10V100c0-2.11,0.66-4.07,1.77-5.69C44.58,91.71,47.59,90,51,90h258
	c5.52,0,10,4.48,10,10v169C319,274.52,314.52,279,309,279z"/>
<path class="st2" d="M180,184.5"/>
<polyline class="st3" points="42.77,94.31 179.5,180.5 317.22,94.31 "/>
</svg>
