<?xml version="1.0" encoding="utf-8"?>
<!-- Generator: Adobe Illustrator 25.4.1, SVG Export Plug-In . SVG Version: 6.00 Build 0)  -->
<svg version="1.1" id="Layer_1" xmlns="http://www.w3.org/2000/svg" xmlns:xlink="http://www.w3.org/1999/xlink" x="0px" y="0px"
	 viewBox="0 0 360 360" style="enable-background:new 0 0 360 360;" xml:space="preserve">
<style type="text/css">
	.st0{fill:#53AEDB;}
	.st1{fill:#FFFFFF;}
	.st2{fill:none;stroke:#FFFFFF;stroke-width:5;stroke-miterlimit:10;}
	.st3{fill:#53AEDB;stroke:#FFFFFF;stroke-width:0.6467;stroke-miterlimit:10;}
	.st4{fill:none;stroke:#FFFFFF;stroke-width:4.8479;stroke-miterlimit:10;}
	.st5{fill:none;stroke:#FFFFFF;stroke-width:9.393;stroke-miterlimit:10;}
	.st6{fill:none;stroke:#FFFFFF;stroke-width:7.3925;stroke-miterlimit:10;}
</style>
<path class="st0" d="M331,352H28c-11.05,0-20-8.95-20-20V29C8,17.95,16.95,9,28,9h303c11.05,0,20,8.95,20,20v303
	C351,343.05,342.05,352,331,352z"/>
<path class="st1" d="M230.18,133.45l-41.96,161.48c-0.9,3.46-4.43,5.53-7.89,4.63L74.56,272.09c-1.32-0.35-2.44-1.07-3.27-2.03
	c-1.34-1.56-1.92-3.72-1.36-5.85l41.97-161.49c0.9-3.46,4.43-5.53,7.89-4.63l105.78,27.48C229,126.47,231.08,130,230.18,133.45z"/>
<path class="st2" d="M180,184.5"/>
<path class="st3" d="M219.99,141.95l-36.41,140.12c-0.78,3-3.85,4.8-6.88,4.01l-92.38-24.01c-1.15-0.3-2.14-0.94-2.85-1.77
	c-1.17-1.35-1.68-3.23-1.19-5.08l36.41-140.12c0.78-3,3.85-4.8,6.88-4.01l92.38,24.01C218.96,135.89,220.78,138.95,219.99,141.95z"
	/>
<path class="st4" d="M231.27,106.02c0.84-0.05,11.02-0.43,17.44,8.04c6.19,8.16,3.52,17.46,3.24,18.37"/>
<path class="st5" d="M246.78,60.25c1.65-0.07,21.64-0.65,34.37,15.62c12.27,15.68,7.17,33.43,6.63,35.18"/>
<path class="st6" d="M237.06,84.82c1.27-0.07,16.81-0.65,26.6,12.26c9.44,12.44,5.37,26.62,4.94,28.01"/>
</svg>
