<?xml version="1.0" encoding="utf-8"?>
<!-- Generator: Adobe Illustrator 25.4.1, SVG Export Plug-In . SVG Version: 6.00 Build 0)  -->
<svg version="1.1" id="Layer_1" xmlns="http://www.w3.org/2000/svg" xmlns:xlink="http://www.w3.org/1999/xlink" x="0px" y="0px"
	 viewBox="0 0 360 360" style="enable-background:new 0 0 360 360;" xml:space="preserve">
<style type="text/css">
	.st0{fill:#53AEDB;}
	.st1{fill:none;stroke:#FFFFFF;stroke-width:5;stroke-miterlimit:10;}
	.st2{fill:#FFFFFF;}
</style>
<path class="st0" d="M332,351H29c-11.05,0-20-8.95-20-20V28C9,16.95,17.95,8,29,8h303c11.05,0,20,8.95,20,20v303
	C352,342.05,343.05,351,332,351z"/>
<path class="st1" d="M180,184.5"/>
<path class="st2" d="M295.28,249.11H64.11C52.45,249.11,43,239.66,43,228V97.11C43,85.45,52.45,76,64.11,76h231.17
	c11.66,0,21.11,9.45,21.11,21.11V228C316.39,239.66,306.94,249.11,295.28,249.11z"/>
<path class="st2" d="M100.59,235.02c2.1,28.68-5.62,33.61-25.93,44.53C115.32,308.68,191.36,210.3,100.59,235.02z"/>
</svg>
