<?xml version="1.0" encoding="utf-8"?>
<!-- Generator: Adobe Illustrator 25.4.1, SVG Export Plug-In . SVG Version: 6.00 Build 0)  -->
<svg version="1.1" id="Layer_1" xmlns="http://www.w3.org/2000/svg" xmlns:xlink="http://www.w3.org/1999/xlink" x="0px" y="0px"
	 viewBox="0 0 360 360" style="enable-background:new 0 0 360 360;" xml:space="preserve">
<style type="text/css">
	.st0{fill:#53AEDB;}
	.st1{fill:none;stroke:#FFFFFF;stroke-width:10;stroke-miterlimit:10;}
	.st2{fill:none;stroke:#FFFFFF;stroke-width:5;stroke-miterlimit:10;}
	.st3{fill:none;stroke:#FFFFFF;stroke-width:4.6391;stroke-miterlimit:10;}
</style>
<path class="st0" d="M332,353H29c-11.05,0-20-8.95-20-20V30c0-11.05,8.95-20,20-20h303c11.05,0,20,8.95,20,20v303
	C352,344.05,343.05,353,332,353z"/>
<path class="st1" d="M298,315H62c-8.28,0-15-6.72-15-15V58c0-8.28,6.72-15,15-15h236c8.28,0,15,6.72,15,15v242
	C313,308.28,306.28,315,298,315z"/>
<line class="st1" x1="47" y1="83" x2="313" y2="84"/>
<line class="st2" x1="47" y1="239" x2="313" y2="240"/>
<line class="st2" x1="48" y1="197" x2="314" y2="198"/>
<line class="st2" x1="45" y1="161" x2="311" y2="162"/>
<line class="st2" x1="47" y1="122" x2="313" y2="123"/>
<line class="st2" x1="45" y1="281" x2="311" y2="282"/>
<line class="st3" x1="179.59" y1="314.97" x2="179.53" y2="83"/>
<line class="st3" x1="243.59" y1="316.69" x2="243.53" y2="84.72"/>
<line class="st3" x1="113.59" y1="316.69" x2="113.53" y2="84.72"/>
</svg>
